<mxfile host="app.diagrams.net" agent="Mozilla/5.0 (Windows NT 10.0; Win64; x64) AppleWebKit/537.36 (KHTML, like Gecko) Chrome/136.0.0.0 Safari/537.36 Edg/136.0.0.0" version="26.2.14">
  <diagram name="第 1 页" id="hi7ibJlzP2ibSPHShMDq">
    <mxGraphModel dx="1500" dy="826" grid="1" gridSize="10" guides="1" tooltips="1" connect="1" arrows="1" fold="1" page="1" pageScale="1" pageWidth="827" pageHeight="1169" math="0" shadow="0">
      <root>
        <mxCell id="0" />
        <mxCell id="1" parent="0" />
        <mxCell id="3GwJFPmeZyGnVf-Txque-1" value="" style="rounded=0;whiteSpace=wrap;html=1;" vertex="1" parent="1">
          <mxGeometry x="160" y="350" width="480" height="270" as="geometry" />
        </mxCell>
        <mxCell id="3GwJFPmeZyGnVf-Txque-2" value="&lt;span style=&quot;font-size: 16px;&quot;&gt;E&lt;/span&gt;&lt;div&gt;&lt;span style=&quot;font-size: 16px;&quot;&gt;S&lt;/span&gt;&lt;/div&gt;&lt;div&gt;&lt;span style=&quot;font-size: 16px;&quot;&gt;P&lt;/span&gt;&lt;/div&gt;&lt;div&gt;&lt;span style=&quot;font-size: 16px;&quot;&gt;3&lt;/span&gt;&lt;/div&gt;&lt;div&gt;&lt;span style=&quot;font-size: 16px;&quot;&gt;2&lt;/span&gt;&lt;/div&gt;&lt;div&gt;&lt;span style=&quot;font-size: 16px;&quot;&gt;微&lt;/span&gt;&lt;/div&gt;&lt;div&gt;&lt;span style=&quot;font-size: 16px;&quot;&gt;控&lt;/span&gt;&lt;/div&gt;&lt;div&gt;&lt;span style=&quot;font-size: 16px;&quot;&gt;制&lt;/span&gt;&lt;/div&gt;&lt;div&gt;&lt;span style=&quot;font-size: 16px;&quot;&gt;器&lt;/span&gt;&lt;/div&gt;" style="rounded=0;whiteSpace=wrap;html=1;" vertex="1" parent="1">
          <mxGeometry x="470" y="380" width="110" height="210" as="geometry" />
        </mxCell>
        <mxCell id="3GwJFPmeZyGnVf-Txque-3" value="&lt;span style=&quot;font-size: 16px;&quot;&gt;L&lt;/span&gt;&lt;div&gt;&lt;span style=&quot;font-size: 16px;&quot;&gt;E&lt;/span&gt;&lt;/div&gt;&lt;div&gt;&lt;span style=&quot;font-size: 16px;&quot;&gt;D&lt;/span&gt;&lt;/div&gt;&lt;div&gt;&lt;span style=&quot;font-size: 16px;&quot;&gt;三&lt;/span&gt;&lt;/div&gt;&lt;div&gt;&lt;span style=&quot;font-size: 16px;&quot;&gt;色&lt;/span&gt;&lt;/div&gt;&lt;div&gt;&lt;span style=&quot;font-size: 16px;&quot;&gt;灯&lt;/span&gt;&lt;/div&gt;" style="rounded=0;whiteSpace=wrap;html=1;" vertex="1" parent="1">
          <mxGeometry x="210" y="382.5" width="110" height="205" as="geometry" />
        </mxCell>
        <mxCell id="3GwJFPmeZyGnVf-Txque-4" value="" style="rounded=0;whiteSpace=wrap;html=1;" vertex="1" parent="1">
          <mxGeometry x="300" y="446" width="20" height="20" as="geometry" />
        </mxCell>
        <mxCell id="3GwJFPmeZyGnVf-Txque-5" value="" style="rounded=0;whiteSpace=wrap;html=1;direction=south;" vertex="1" parent="1">
          <mxGeometry x="300" y="494" width="20" height="20" as="geometry" />
        </mxCell>
        <mxCell id="3GwJFPmeZyGnVf-Txque-6" value="" style="rounded=0;whiteSpace=wrap;html=1;" vertex="1" parent="1">
          <mxGeometry x="300" y="550" width="20" height="20" as="geometry" />
        </mxCell>
        <mxCell id="3GwJFPmeZyGnVf-Txque-7" value="" style="rounded=0;whiteSpace=wrap;html=1;" vertex="1" parent="1">
          <mxGeometry x="470" y="400" width="20" height="20" as="geometry" />
        </mxCell>
        <mxCell id="3GwJFPmeZyGnVf-Txque-8" value="" style="rounded=0;whiteSpace=wrap;html=1;" vertex="1" parent="1">
          <mxGeometry x="470" y="496" width="20" height="20" as="geometry" />
        </mxCell>
        <mxCell id="3GwJFPmeZyGnVf-Txque-9" value="" style="rounded=0;whiteSpace=wrap;html=1;" vertex="1" parent="1">
          <mxGeometry x="470" y="547" width="20" height="20" as="geometry" />
        </mxCell>
        <mxCell id="3GwJFPmeZyGnVf-Txque-11" value="" style="endArrow=none;html=1;rounded=0;exitX=1;exitY=0.5;exitDx=0;exitDy=0;entryX=0;entryY=0.5;entryDx=0;entryDy=0;" edge="1" parent="1">
          <mxGeometry width="50" height="50" relative="1" as="geometry">
            <mxPoint x="320" y="558.5" as="sourcePoint" />
            <mxPoint x="470" y="558.5" as="targetPoint" />
          </mxGeometry>
        </mxCell>
        <mxCell id="3GwJFPmeZyGnVf-Txque-12" value="&lt;span style=&quot;font-size: 16px;&quot;&gt;R&lt;/span&gt;" style="text;html=1;align=center;verticalAlign=middle;whiteSpace=wrap;rounded=0;" vertex="1" parent="1">
          <mxGeometry x="309" y="388" width="60" height="30" as="geometry" />
        </mxCell>
        <mxCell id="3GwJFPmeZyGnVf-Txque-13" value="&lt;font style=&quot;font-size: 16px;&quot;&gt;B&lt;/font&gt;" style="text;html=1;align=center;verticalAlign=middle;whiteSpace=wrap;rounded=0;" vertex="1" parent="1">
          <mxGeometry x="309" y="481" width="60" height="30" as="geometry" />
        </mxCell>
        <mxCell id="3GwJFPmeZyGnVf-Txque-14" value="&lt;font style=&quot;font-size: 16px;&quot;&gt;GND&lt;/font&gt;" style="text;html=1;align=center;verticalAlign=middle;whiteSpace=wrap;rounded=0;" vertex="1" parent="1">
          <mxGeometry x="316" y="532" width="60" height="30" as="geometry" />
        </mxCell>
        <mxCell id="3GwJFPmeZyGnVf-Txque-15" value="&lt;span style=&quot;font-size: 16px;&quot;&gt;D17&lt;/span&gt;" style="text;html=1;align=center;verticalAlign=middle;whiteSpace=wrap;rounded=0;" vertex="1" parent="1">
          <mxGeometry x="414" y="388" width="60" height="30" as="geometry" />
        </mxCell>
        <mxCell id="3GwJFPmeZyGnVf-Txque-17" value="&lt;span style=&quot;font-size: 16px;&quot;&gt;GND&lt;/span&gt;" style="text;html=1;align=center;verticalAlign=middle;whiteSpace=wrap;rounded=0;" vertex="1" parent="1">
          <mxGeometry x="416" y="532" width="60" height="30" as="geometry" />
        </mxCell>
        <mxCell id="3GwJFPmeZyGnVf-Txque-18" value="" style="rounded=0;whiteSpace=wrap;html=1;" vertex="1" parent="1">
          <mxGeometry x="300" y="400" width="20" height="20" as="geometry" />
        </mxCell>
        <mxCell id="3GwJFPmeZyGnVf-Txque-19" value="&lt;span style=&quot;font-size: 16px;&quot;&gt;G&lt;/span&gt;" style="text;html=1;align=center;verticalAlign=middle;whiteSpace=wrap;rounded=0;" vertex="1" parent="1">
          <mxGeometry x="308" y="431" width="60" height="30" as="geometry" />
        </mxCell>
        <mxCell id="3GwJFPmeZyGnVf-Txque-20" value="" style="endArrow=none;html=1;rounded=0;exitX=1;exitY=0.5;exitDx=0;exitDy=0;entryX=0;entryY=0.5;entryDx=0;entryDy=0;" edge="1" parent="1">
          <mxGeometry width="50" height="50" relative="1" as="geometry">
            <mxPoint x="320" y="412" as="sourcePoint" />
            <mxPoint x="470" y="412" as="targetPoint" />
          </mxGeometry>
        </mxCell>
        <mxCell id="3GwJFPmeZyGnVf-Txque-22" value="" style="rounded=0;whiteSpace=wrap;html=1;" vertex="1" parent="1">
          <mxGeometry x="470" y="446" width="20" height="20" as="geometry" />
        </mxCell>
      </root>
    </mxGraphModel>
  </diagram>
</mxfile>
